<?xml version="1.0" standalone="no"?>
<!DOCTYPE svg PUBLIC "-//W3C//DTD SVG 20010904//EN"
 "http://www.w3.org/TR/2001/REC-SVG-20010904/DTD/svg10.dtd">
<svg version="1.0" xmlns="http://www.w3.org/2000/svg"
 width="64.000000pt" height="64.000000pt" viewBox="0 0 64.000000 64.000000"
 preserveAspectRatio="xMidYMid meet">

<g transform="translate(0.000000,64.000000) scale(0.100000,-0.100000)"
fill="#000000" stroke="none">
<path d="M430 575 c-13 -14 -26 -23 -29 -20 -6 7 -81 -66 -81 -79 0 -6 -61
-72 -135 -146 l-136 -136 -8 -75 c-5 -40 -6 -77 -2 -80 3 -3 39 -3 79 1 l74 7
137 137 c75 75 141 136 147 136 5 0 28 18 49 40 21 22 35 40 31 40 -4 0 6 16
23 35 17 20 31 40 31 46 0 6 -23 35 -51 65 -60 62 -91 69 -129 29z m108 -38
c47 -48 51 -66 22 -92 -21 -19 -22 -18 -77 38 -56 55 -57 56 -38 77 27 30 46
25 93 -23z m-71 -69 c63 -63 77 -88 47 -88 -9 0 -18 -9 -21 -21 -5 -18 -15
-12 -79 52 -66 65 -72 74 -54 81 11 4 20 14 20 23 0 28 24 15 87 -47z m-67
-73 l55 -55 -130 -130 c-118 -118 -131 -128 -139 -110 -8 18 3 34 78 109 49
49 84 91 79 94 -5 3 -47 -32 -94 -79 -79 -80 -109 -99 -109 -72 0 7 32 45 72
85 40 40 69 76 65 80 -4 4 -41 -26 -81 -66 -61 -61 -77 -72 -96 -66 -21 7 -11
19 106 136 71 71 131 129 134 129 3 0 30 -25 60 -55z m-294 -233 c6 -4 13 -15
17 -24 3 -10 13 -18 21 -18 16 0 31 -34 21 -50 -10 -16 -67 -12 -87 7 -17 16
-25 73 -11 86 8 9 25 9 39 -1z"/>
<path d="M395 479 c-4 -6 -5 -13 -2 -16 7 -7 27 6 27 18 0 12 -17 12 -25 -2z"/>
<path d="M431 446 c-7 -8 -8 -17 -3 -20 6 -3 15 1 21 8 7 8 8 17 3 20 -6 3
-15 -1 -21 -8z"/>
<path d="M465 409 c-4 -6 -5 -13 -2 -16 7 -7 27 6 27 18 0 12 -17 12 -25 -2z"/>
<path d="M306 361 c-11 -12 -16 -24 -12 -28 9 -9 39 22 34 37 -2 7 -10 4 -22
-9z"/>
</g>
</svg>
