<?xml version="1.0" standalone="no"?>
<!DOCTYPE svg PUBLIC "-//W3C//DTD SVG 20010904//EN"
 "http://www.w3.org/TR/2001/REC-SVG-20010904/DTD/svg10.dtd">
<svg version="1.0" xmlns="http://www.w3.org/2000/svg"
 width="96.000000pt" height="96.000000pt" viewBox="0 0 96.000000 96.000000"
 preserveAspectRatio="xMidYMid meet">

<g transform="translate(0.000000,96.000000) scale(0.100000,-0.100000)"
fill="#000000" stroke="none">
<path d="M420 863 c-23 -12 -42 -33 -55 -60 l-19 -42 -121 -3 -120 -3 0 -25
c0 -20 6 -26 30 -30 l30 -5 21 -171 c12 -94 24 -176 28 -183 10 -16 34 -14 44
4 5 9 0 85 -13 185 l-21 170 315 2 316 3 0 25 0 25 -121 3 -121 3 -15 38 c-28
69 -110 99 -178 64z m107 -65 c13 -12 23 -25 23 -30 0 -4 -31 -8 -70 -8 -38 0
-70 3 -70 7 0 4 10 17 22 30 27 29 65 29 95 1z"/>
<path d="M725 571 c-3 -5 -17 -99 -31 -208 -14 -109 -31 -204 -36 -211 -15
-17 -341 -17 -355 0 -6 7 -13 31 -16 52 -8 52 -26 71 -51 53 -16 -12 -17 -19
-7 -73 8 -42 18 -65 36 -81 25 -22 33 -23 214 -23 259 0 236 -24 276 284 18
138 21 193 13 203 -12 15 -34 17 -43 4z"/>
<path d="M377 523 c-15 -14 -6 -38 25 -70 l32 -33 -33 -34 c-60 -62 -17 -105
45 -45 l34 33 34 -33 c62 -60 105 -17 45 45 l-33 34 33 34 c60 62 17 105 -45
45 l-34 -33 -33 32 c-32 31 -56 40 -70 25z"/>
</g>
</svg>
