<?xml version="1.0" standalone="no"?>
<!DOCTYPE svg PUBLIC "-//W3C//DTD SVG 20010904//EN"
 "http://www.w3.org/TR/2001/REC-SVG-20010904/DTD/svg10.dtd">
<svg version="1.0" xmlns="http://www.w3.org/2000/svg"
 width="64.000000pt" height="64.000000pt" viewBox="0 0 64.000000 64.000000"
 preserveAspectRatio="xMidYMid meet">

<g transform="translate(0.000000,64.000000) scale(0.100000,-0.100000)"
fill="#000000" stroke="none">
<path d="M29 583 c-15 -41 -8 -528 9 -545 19 -19 545 -19 564 0 10 9 14 64 16
203 l3 190 -87 90 -88 89 -203 0 -203 0 -11 -27z m111 -34 c0 -64 9 -69 131
-69 108 0 110 0 119 26 6 14 10 36 10 50 0 42 32 28 108 -49 l72 -73 -2 -189
-3 -190 -37 -3 -38 -3 0 95 c0 52 -4 106 -10 120 l-10 26 -159 0 c-148 0 -161
-1 -171 -19 -5 -11 -10 -65 -10 -121 l0 -101 -37 3 -38 3 -3 263 -2 262 40 0
c38 0 40 -2 40 -31z m228 -1 l-3 -33 -95 0 -95 0 -3 33 -3 32 101 0 101 0 -3
-32z m97 -303 c0 -10 -258 -20 -283 -10 -7 3 -10 10 -7 15 9 14 290 9 290 -5z
m3 -57 c-4 -10 -42 -13 -148 -13 -106 0 -144 3 -147 13 -4 9 30 12 147 12 117
0 151 -3 148 -12z m0 -60 c-4 -10 -42 -13 -148 -13 -106 0 -144 3 -147 13 -4
9 30 12 147 12 117 0 151 -3 148 -12z m0 -60 c-4 -10 -42 -13 -148 -13 -106 0
-144 3 -147 13 -4 9 30 12 147 12 117 0 151 -3 148 -12z"/>
</g>
</svg>
