<?xml version="1.0" standalone="no"?>
<!DOCTYPE svg PUBLIC "-//W3C//DTD SVG 20010904//EN"
 "http://www.w3.org/TR/2001/REC-SVG-20010904/DTD/svg10.dtd">
<svg version="1.0" xmlns="http://www.w3.org/2000/svg"
 width="32.000000pt" height="32.000000pt" viewBox="0 0 32.000000 32.000000"
 preserveAspectRatio="xMidYMid meet">

<g transform="translate(0.000000,32.000000) scale(0.100000,-0.100000)"
fill="#000000" stroke="none">
<path d="M20 297 c0 -1 9 -30 20 -64 19 -62 19 -64 0 -125 -10 -34 -18 -63
-17 -64 4 -5 267 120 267 126 0 4 -26 19 -59 34 -32 14 -93 42 -135 61 -42 19
-76 33 -76 32z m125 -77 l80 -39 -74 2 -74 2 -13 38 c-7 20 -10 37 -6 36 4 0
43 -18 87 -39z m0 -100 c-89 -43 -96 -45 -90 -27 26 72 18 67 97 66 l73 -1
-80 -38z"/>
</g>
</svg>
